<svg width="70" height="78" viewBox="0 0 70 78" fill="none" xmlns="http://www.w3.org/2000/svg">
<path d="M62.2222 0H7.77778C5.71498 0 3.73667 0.819442 2.27806 2.27806C0.819442 3.73667 0 5.71498 0 7.77778V58.3333C0 60.3961 0.819442 62.3744 2.27806 63.833C3.73667 65.2917 5.71498 66.1111 7.77778 66.1111H23.3333L35 77.7778L46.6667 66.1111H62.2222C64.285 66.1111 66.2633 65.2917 67.7219 63.833C69.1806 62.3744 70 60.3961 70 58.3333V7.77778C70 5.71498 69.1806 3.73667 67.7219 2.27806C66.2633 0.819442 64.285 0 62.2222 0ZM35 11.6667C41.7161 11.6667 46.6667 16.6133 46.6667 23.3333C46.6667 30.0533 41.7161 35 35 35C28.2878 35 23.3333 30.0533 23.3333 23.3333C23.3333 16.6133 28.2878 11.6667 35 11.6667ZM16.2439 54.4444C18.4139 47.7439 25.9506 42.7778 35 42.7778C44.0494 42.7778 51.59 47.7439 53.7561 54.4444H16.2439Z" fill="#0085FF"/>
</svg>
